<?xml version="1.0" standalone="no"?><!DOCTYPE svg PUBLIC "-//W3C//DTD SVG 1.1//EN" "http://www.w3.org/Graphics/SVG/1.1/DTD/svg11.dtd"><svg t="1730530316884" class="icon" viewBox="0 0 1365 1024" version="1.1" xmlns="http://www.w3.org/2000/svg" p-id="4353" xmlns:xlink="http://www.w3.org/1999/xlink" width="341.25" height="256"><path d="M274.28 812.075c-38.911 0-74.197-31.83-74.197-70.528s31.872-70.699 74.24-70.699c42.539 0 74.539 31.83 74.539 70.656 0 38.784-35.413 70.528-74.24 70.528l-0.341 0.043z m910.891-384.726c-7.68-56.448-42.666-102.4-88.746-137.685l-17.92-14.208-14.464 17.621c-28.075 31.872-39.254 88.363-35.84 130.56 3.413 32 13.653 63.744 31.53 88.406-14.464 7.424-32.298 14.25-46.08 21.461a300.928 300.928 0 0 1-95.573 14.208H5.566l-3.413 21.077a397.099 397.099 0 0 0 32 201.387l13.866 24.747v3.413c85.334 141.227 237.227 204.8 402.646 204.8 318.25 0 579.242-137.685 702.976-434.261 81.066 3.541 162.944-17.622 201.386-95.318l10.24-17.664-17.066-10.624c-46.08-28.117-109.227-31.872-162.134-17.621l-1.024 0.085 0.128-0.384zM729.62 370.901H591.422v137.686h138.24V370.773l-0.085 0.214v-0.086z m0-173.098H591.422v137.685h138.24V197.973l-0.085-0.17z m0-176.598H591.422v137.686h138.24V21.205z m168.96 349.696H761.235v137.686h137.686V370.773l-0.427 0.214 0.085-0.086z m-511.914 0h-137.26v137.686H387.22V370.773l-0.597 0.214 0.043-0.086z m172.373 0H422.505v137.686h137.344V370.773l-0.854 0.214 0.043-0.086z m-343.04 0H79.72v137.686h138.112V370.773l-1.707 0.214-0.128-0.086z m343.04-173.098H422.505v137.685h137.344V197.973l-0.854-0.17h0.043z m-173.227 0h-136.15v137.685h137.302V197.973l-0.938-0.17h-0.171z" p-id="4354" fill="#000000"></path></svg>