<?xml version="1.0" standalone="no"?><!DOCTYPE svg PUBLIC "-//W3C//DTD SVG 1.1//EN" "http://www.w3.org/Graphics/SVG/1.1/DTD/svg11.dtd"><svg t="1731226424501" class="icon" viewBox="0 0 1024 1024" version="1.1" xmlns="http://www.w3.org/2000/svg" p-id="4280" width="256" height="256" xmlns:xlink="http://www.w3.org/1999/xlink"><path d="M850.698645 811.706907l-459.23452 135.824211c-14.030716 4.153028-27.477569-7.982132-24.52826-22.140818L530.993469 139.710182c3.069282-14.700559 23.378528-17.026015 29.785029-3.4192l303.764907 645.039034c5.728659 12.17715-0.807811 26.527791-13.84676 30.37889z m78.749569-32.0485L577.73453 32.767211C554.547956-10.604638 499.680798-9.031006 478.245814 27.268498L96.79109 645.105898c-11.817234 19.265491-11.583289 43.009934 0.671843 62.025484l186.46236 288.850397c19.2255 22.920636 37.00334 33.732105 67.368233 24.750207l541.243327-160.078535c36.057561-10.797473 53.433494-45.63332 36.911361-80.993044z" p-id="4281" fill="#2c2c2c"></path></svg>