<svg t="1731221569691" class="icon" viewBox="0 0 1024 1024" version="1.1" xmlns="http://www.w3.org/2000/svg" p-id="9267" width="256" height="256"><path d="M344 1.52q-49.14-3.42-88 18.29-51.43 29.71-72 96-18.29 57.14-10.29 137.14l1.15 16-14.86 5.72q-72 33.14-113.14 78.85Q0 404.95 0 463.24q0 58.28 46.86 109.72Q88 618.68 160 651.82l14.86 5.71-2.29 16q-6.86 80 11.43 137.15 20.57 66.28 72 96t118.86 14.86q59.43-13.71 124.57-59.42L512 851.83l12.57 10.29q65.14 45.71 124.57 59.42Q716.57 936.4 768 906.68q51.43-29.71 72-96 18.29-57.15 10.29-137.15l-1.15-16 14.86-5.71q72-33.14 113.14-78.86Q1024 521.53 1024 463.24t-46.86-109.72Q936 307.81 864 274.67l-14.86-5.72 2.29-16q6.86-80-11.43-137.14-20.57-66.29-72-96Q716.57-9.9 649.14 4.95q-59.43 13.72-124.57 59.43L512 74.67l-12.57-10.29Q434.29 18.67 374.86 4.95 360 1.52 344 0.38v1.14z m-4.57 72q9.14 1.15 19.43 3.43 43.43 9.15 96 45.72-45.72 43.43-85.72 93.71-62.85 9.14-123.43 27.43-5.71-64 8-106.29 12.58-38.85 38.86-54.85 19.43-11.43 46.86-9.15z m345.14 0q27.43-2.28 46.86 9.15 26.28 16 38.86 54.85 13.71 42.29 8 106.29-60.58-18.29-123.43-27.43-40-50.28-85.72-93.71 52.57-36.57 96-45.72 10.29-2.28 19.43-3.43z m-172.57 96q17.14 14.86 38.86 38.86L512 207.24l-38.86 1.14q21.72-22.86 38.86-38.86z m0 110.86q50.29 0 102.86 5.72 29.71 41.14 54.86 85.14 25.14 44 46.86 92-20.57 46.86-46.28 91.43-25.72 44.57-55.43 85.71-53.72 5.72-103.44 5.72-49.71 0-102.28-5.72-29.71-41.14-54.86-85.14-25.14-44-46.85-92 20.57-48 45.71-91.43 25.15-43.43 56-85.71 51.43-5.72 102.86-5.72zM309.71 302.1q-12.57 20.57-19.42 33.14L272 369.52q-8-26.28-14.86-53.71 22.86-6.86 52.57-13.71z m404.58 0q29.71 6.85 52.57 13.71-5.72 22.86-14.86 53.71l-18.29-34.28-19.42-33.14z m-525.72 40q14.86 60.57 38.86 121.14-24 58.28-38.86 121.14-57.14-27.43-88-60.57-27.43-29.71-27.43-60.57t27.43-60.57q30.86-33.15 88-60.57z m646.86 0q57.14 27.42 88 60.57 27.43 29.71 27.43 60.57t-27.43 60.57q-30.86 33.14-88 60.57-14.86-62.86-38.86-121.14 24-60.57 38.86-121.14zM512 353.52q-29.71 0-54.86 14.86-25.14 14.86-40 40-14.85 25.14-14.85 54.86 0 29.71 14.85 54.86 14.86 25.14 40 40 25.15 14.86 54.86 14.86t54.86-14.86q25.14-14.86 40-40 14.86-25.15 14.86-54.86 0-29.72-14.86-54.86t-40-40q-25.14-14.86-54.86-14.86z m0 73.15q16 0 26.29 10.29 10.28 10.28 10.28 26.28t-10.28 26.28Q528 499.81 512 499.81t-26.28-10.29q-10.29-10.28-10.29-26.28t10.29-26.28Q496 426.67 512 426.67zM272 556.95q11.43 21.72 18.29 34.29l19.42 33.14q-29.71-6.86-52.57-13.71 5.72-22.86 14.86-53.72z m480 0q9.14 30.86 14.86 53.72-22.86 6.85-52.57 13.71l19.42-33.14L752 556.95zM245.71 682.67q59.43 18.28 123.43 27.43 40 50.28 85.72 93.71-52.57 36.57-96 45.71-40 9.15-66.28-6.28-26.29-15.43-38.87-54.29-13.71-42.28-8-106.28z m532.58 0q5.71 64-8 106.28-12.58 38.86-38.87 54.29-26.28 15.43-66.28 6.28-43.43-9.14-96-45.71 45.72-43.43 85.72-93.71 62.85-9.15 123.43-27.43zM473.14 718.1q25.15 1.14 38.86 1.14l38.86-1.14q-21.72 22.85-38.86 38.85-19.43-18.28-38.86-38.85z" p-id="9268"></path></svg>