<?xml version="1.0" standalone="no"?><!DOCTYPE svg PUBLIC "-//W3C//DTD SVG 1.1//EN" "http://www.w3.org/Graphics/SVG/1.1/DTD/svg11.dtd"><svg t="1729357103957" class="icon" viewBox="0 0 1040 1024" version="1.1" xmlns="http://www.w3.org/2000/svg" p-id="4266" xmlns:xlink="http://www.w3.org/1999/xlink" width="260" height="256"><path d="M285.76 416c32-128 112-192 240-192 192 0 216 144 312 168 64 16 120-8 168-72-32 128-112 192-240 192-192 0-216-144-312-168-64-16-120 8-168 72z m-240 288c32-128 112-192 240-192 192 0 216 144 312 168 64 16 120-8 168-72-32 128-112 192-240 192-192 0-216-144-312-168-64-16-120 8-168 72z" fill="#000000" p-id="4267"></path></svg>