<?xml version="1.0" standalone="no"?><!DOCTYPE svg PUBLIC "-//W3C//DTD SVG 1.1//EN" "http://www.w3.org/Graphics/SVG/1.1/DTD/svg11.dtd"><svg t="1731207848625" class="icon" viewBox="0 0 1024 1024" version="1.1" xmlns="http://www.w3.org/2000/svg" p-id="10017" xmlns:xlink="http://www.w3.org/1999/xlink" width="256" height="256"><path d="M742.325333 597.274667c-1.36-45.722667-11.930667-160.997333-81.306666-232.906667C622.773333 324.682667 572.64 304.586667 512 304.586667c-60.645333 0-110.773333 20.096-149.013333 59.776-69.381333 71.914667-79.952 187.189333-81.312 232.906666l-118.090667-47.637333C141.056 529.125333 89.6 474.933333 89.6 407.754667 89.6 312.858667 234.826667 38.506667 512 38.506667s422.4 274.357333 422.4 369.253333c0 67.178667-51.456 121.370667-73.984 141.877333z" fill="#F76D6D" p-id="10018"></path><path d="M512 51.306667c264.32 0 409.6 267.722667 409.6 356.426666 0 61.770667-49.717333 113.792-68.122667 130.890667l-99.301333 40.064c-3.765333-55.013333-19.658667-156.570667-83.946667-223.205333-40.746667-42.24-94-63.669333-158.229333-63.669334s-117.477333 21.429333-158.234667 63.669334c-64.282667 66.634667-80.202667 168.192-83.941333 223.205333l-99.306667-40.064C152.122667 521.525333 102.4 469.530667 102.4 407.733333 102.4 319.029333 247.68 51.306667 512 51.306667m0-25.6c-282.496 0-435.2 280.394667-435.2 382.026666 0 86.192 78.106667 150.912 79.797333 152.88L294.4 616.218667S283.626667 317.413333 512 317.413333s217.6 298.805333 217.6 298.805334l137.802667-55.605334c1.690667-1.973333 79.797333-66.688 79.797333-152.88 0-101.632-152.704-382.026667-435.2-382.026666z" fill="#AB3434" p-id="10019"></path><path d="M209.562667 755.2c-58.293333 0-119.962667-77.157333-119.962667-150.090667 0-52.736 33.610667-80.309333 66.842667-80.309333 28.976 0 74.853333 12.389333 108.773333 47.333333l3.018667 3.072-18.176 176.464-9.344 2.224c-5.349333 1.152-13.872 1.306667-19.786667 1.306667z" fill="#DEB974" p-id="10020"></path><path d="M156.442667 537.6c26.133333 0 67.354667 11.082667 98.453333 42.293333l-16.613333 161.429334-0.101334 0.026666c-4.864 1.050667-14.208 1.050667-17.253333 1.050667h-11.392c-52.069333 0-107.136-70.581333-107.136-137.317333 0-46.362667 28.005333-67.482667 54.042667-67.482667m0-25.6c-39.450667 0-79.642667 31.925333-79.642667 93.082667C76.8 684.544 142.410667 768 209.536 768h11.392c8.730667 0 16.693333-0.330667 22.757333-1.664l18.202667-4.325333 19.712-191.488-7.194667-7.322667C237.621333 525.285333 187.930667 512 156.442667 512z" fill="#967A44" p-id="10021"></path><path d="M192 588.8h76.8c21.12 0 38.4 17.28 38.4 38.4s-17.28 38.4-38.4 38.4H192c-21.12 0-38.4-17.28-38.4-38.4s17.28-38.4 38.4-38.4z" fill="#967A44" p-id="10022"></path><path d="M803.072 755.2c-5.914667 0-14.437333-0.154667-19.968-1.386667l-9.162667-2.170666-18.176-176.464 2.965334-3.018667c33.973333-34.970667 79.850667-47.386667 108.826666-47.386667 33.226667 0 66.842667 27.573333 66.842667 80.309334 0 72.96-61.642667 150.090667-119.962667 150.090666h-11.365333z" fill="#DEB974" p-id="10023"></path><path d="M867.557333 537.6c26.037333 0 54.042667 21.12 54.042667 67.482667 0 66.736-55.066667 137.317333-107.136 137.317333h-11.392c-3.072 0-12.389333 0-16.842667-0.970667l-0.512-0.128-16.618666-161.44c31.002667-31.146667 72.298667-42.261333 98.458666-42.261333m0-25.6c-31.488 0-81.152 13.285333-117.936 51.2l-7.221333 7.322667 19.712 191.488 18.202667 4.325333c6.064 1.333333 14.053333 1.664 22.757333 1.664h11.365333c67.146667 0 132.762667-83.456 132.762667-162.917333 0-61.157333-40.192-93.082667-79.642667-93.082667z" fill="#967A44" p-id="10024"></path><path d="M832 588.8h-76.8c-21.12 0-38.4 17.28-38.4 38.4s17.28 38.4 38.4 38.4H832c21.12 0 38.4-17.28 38.4-38.4s-17.28-38.4-38.4-38.4z" fill="#967A44" p-id="10025"></path><path d="M512 985.6c-67.354667 0-98.917333-16.821333-132.352-34.666667-10.112-5.344-19.018667-10.106667-29.082667-14.72-5.786667-2.656-12.72-5.424-20.453333-8.416-16.693333-6.608-163.733333-68.608-163.733333-203.52 0-43.957333 20.938667-79.616 37.781333-108.266666 4.554667-7.781333 8.730667-14.922667 12.032-21.397334l1.408-2.741333V464.741333C228.789333 449.717333 297.626667 371.2 512 371.2c215.909333 0 283.338667 78.282667 294.4 93.466667v127.205333l1.408 2.714667c3.306667 6.474667 7.477333 13.616 12.032 21.402666 16.821333 28.64 37.786667 64.330667 37.786667 108.261334 0 134.933333-147.024 196.912-163.765334 203.546666-7.68 2.965333-14.613333 5.733333-20.426666 8.394667-10.037333 4.634667-18.944 9.370667-27.626667 13.973333-34.890667 18.613333-66.453333 35.434667-133.808 35.434667z" fill="#F5CE85" p-id="10026"></path><path d="M512 384c196.709333 0 266.368 67.018667 281.6 85.146667v125.797333l2.789333 5.477333c3.408 6.682667 7.706667 14.053333 12.416 22.096 16.026667 27.312 35.994667 61.312 35.994667 101.76 0 102.704-97.845333 168.8-155.546667 191.616-8.010667 3.12-15.253333 5.989333-21.146666 8.725334-10.469333 4.816-19.530667 9.626667-28.309334 14.288l-1.488 0.794666c-31.973333 17.024-62.181333 33.098667-126.309333 33.098667-64.154667 0-94.336-16.074667-126.362667-33.152l-1.434666-0.768c-8.778667-4.661333-17.84-9.493333-28.234667-14.261333-5.989333-2.762667-13.210667-5.653333-21.12-8.725334-57.802667-22.837333-155.648-88.906667-155.648-191.616 0-40.448 19.968-74.448 35.994667-101.76 4.709333-8.042667 9.013333-15.413333 12.416-22.096l2.789333-5.477333V469.194667C246.042667 450.634667 315.850667 384 512 384m0-25.6c-248.037333 0-307.2 102.4-307.2 102.4v128c-15.466667 30.410667-51.2 75.722667-51.2 135.477333 0 124.16 118.426667 194.325333 171.850667 215.445334 7.450667 2.896 14.186667 5.557333 19.738666 8.144 10.346667 4.762667 19.509333 9.674667 28.416 14.410666 33.36 17.744 67.84 36.122667 138.394667 36.122667 70.554667 0 105.034667-18.378667 138.368-36.149333 8.906667-4.736 18.074667-9.653333 28.416-14.410667 5.557333-2.586667 12.288-5.226667 19.733333-8.138667 53.456-21.098667 171.882667-91.264 171.882667-215.424 0-59.728-35.733333-105.066667-51.2-135.477333v-128S760.037333 358.4 512 358.4z" fill="#967A44" p-id="10027"></path><path d="M460.8 575.744c0 35.226667-22.912 63.744-51.2 63.744-28.288 0-51.2-28.544-51.2-63.744S381.312 512 409.6 512c28.288 0 51.2 28.544 51.2 63.744z" fill="#FFFFFF" p-id="10028"></path><path d="M452.453333 592.181333c0 26.416-15.333333 47.818667-34.224 47.818667-18.896 0-34.229333-21.402667-34.229333-47.818667 0-26.421333 15.333333-47.824 34.229333-47.824 18.890667 0.026667 34.224 21.402667 34.224 47.824z" fill="#4E7AB5" p-id="10029"></path><path d="M452.453333 605.797333c0 18.869333-10.293333 34.202667-22.986666 34.202667-12.672 0-22.986667-15.306667-22.986667-34.202667 0-18.864 10.288-34.202667 22.986667-34.202666 12.672 0 22.986667 15.338667 22.986666 34.202666z" fill="#36404D" p-id="10030"></path><path d="M204.8 640c33.994667-58.010667 76.8-76.8 76.8-76.8V422.4H204.8V640zM461.029333 759.322667c-14.181333 0-27.338667 4.325333-38.245333 11.696-1.994667-5.706667-5.045333-10.88-8.394667-15.792-80.8-8.293333-136.832-34.384-151.936-64.026667-4.405333 9.546667-6.453333 25.706667-6.453333 33.946667 0 29.898667 14.517333 55.066667 34.586667 64.330666-0.08 1.36-0.410667 2.64-0.410667 4.021334 0 37.733333 30.592 68.352 68.352 68.352 14.186667 0 27.338667-4.325333 38.245333-11.701334 9.317333 26.624 34.432 45.850667 64.256 45.850667 37.733333 0 68.352-30.592 68.352-68.352 0-37.733333-30.613333-68.325333-68.352-68.325333z" fill="#4D3E40" p-id="10031"></path><path d="M512 102.4c70.682667 0 128 57.317333 128 128s-57.317333 128-128 128zM512 102.4c-70.682667 0-128 57.317333-128 128s57.317333 128 128 128z" fill="#FFFFFF" p-id="10032"></path><path d="M512 188.8l32.128-35.2s71.093333 113.738667 70.272 115.994667c-0.842667 2.250667-38.144 12.005333-38.144 12.005333l-35.893333-89.493333L512 220.8zM512 188.8l-32.128-35.2S408.778667 267.338667 409.6 269.594667c0.842667 2.250667 38.144 12.005333 38.144 12.005333l35.893333-89.493333L512 220.8z" fill="#F76D6D" p-id="10033"></path><path d="M368.64 486.4c40.474667 0 92.16 25.6 92.16 25.6s-39.882667-76.8-92.16-76.8C322.741333 435.2 307.2 512 307.2 512s30.592-25.6 61.44-25.6z" fill="#4D3E40" p-id="10034"></path><path d="M614.4 512c28.288 0 51.2 28.544 51.2 63.744s-22.912 63.744-51.2 63.744c-28.288 0-51.2-28.544-51.2-63.744S586.112 512 614.4 512z" fill="#FFFFFF" p-id="10035"></path><path d="M605.770667 544.384c18.896 0 34.229333 21.402667 34.229333 47.818667 0 26.421333-15.333333 47.797333-34.229333 47.797333-18.890667 0-34.224-21.402667-34.224-47.818667 0-26.421333 15.333333-47.797333 34.224-47.797333z" fill="#4E7AB5" p-id="10036"></path><path d="M594.533333 571.594667c12.672 0 22.986667 15.306667 22.986667 34.202666 0 18.869333-10.288 34.202667-22.986667 34.202667-12.672 0-22.986667-15.306667-22.986666-34.202667 0-18.864 10.314667-34.202667 22.986666-34.202666z" fill="#36404D" p-id="10037"></path><path d="M819.2 640c-33.994667-58.010667-76.8-76.8-76.8-76.8V422.4h76.8V640zM562.970667 759.322667c14.181333 0 27.338667 4.325333 38.245333 11.696 1.994667-5.706667 5.045333-10.88 8.394667-15.792 80.8-8.293333 136.832-34.384 151.936-64.026667 4.405333 9.546667 6.453333 25.706667 6.453333 33.946667 0 29.898667-14.517333 55.066667-34.586667 64.330666 0.08 1.36 0.410667 2.64 0.410667 4.021334 0 37.733333-30.592 68.352-68.352 68.352-14.186667 0-27.338667-4.325333-38.245333-11.701334-9.317333 26.624-34.432 45.850667-64.256 45.850667-37.733333 0-68.352-30.592-68.352-68.352 0-37.733333 30.613333-68.325333 68.352-68.325333z" fill="#4D3E40" p-id="10038"></path><path d="M655.36 486.4c-40.474667 0-92.16 25.6-92.16 25.6s39.882667-76.8 92.16-76.8c45.898667 0 61.44 76.8 61.44 76.8s-30.592-25.6-61.44-25.6z" fill="#4D3E40" p-id="10039"></path><path d="M396.8 704a115.2 102.4 0 1 0 230.4 0 115.2 102.4 0 1 0-230.4 0Z" fill="#FFF7D1" p-id="10040"></path><path d="M512 614.4c56.474667 0 102.4 40.192 102.4 89.6 0 49.408-45.925333 89.6-102.4 89.6-56.474667 0-102.4-40.192-102.4-89.6 0-49.408 45.925333-89.6 102.4-89.6m0-25.6c-70.602667 0-128 51.685333-128 115.2s57.397333 115.2 128 115.2 128-51.685333 128-115.2-57.397333-115.2-128-115.2z" fill="#BA9B48" p-id="10041"></path><path d="M204.570667 524.8c-17.024 0-30.773333-14.282667-39.248-26.266667C164.042667 496.997333 140.8 471.04 140.8 432c1.482667-19.253333 88.138667-163.2 371.2-163.2s369.717333 143.946667 371.2 163.354667c0 39.322667-23.221333 64.816-23.450667 65.072-9.52 13.264-23.216 27.498667-40.394666 27.573333-5.12-0.949333-18.613333-15.157333-27.802667-29.365333C766.208 464.922667 690.176 396.8 512 396.8S257.792 464.922667 233.370667 494.208c-10.186667 15.514667-23.76 29.797333-28.8 30.592z" fill="#FFCACA" p-id="10042"></path><path d="M512 281.6c263.194667 0 351.744 126.282667 358.4 151.754667-0.533333 32.949333-19.994667 55.093333-20.042667 55.146666l-1.152 1.253334-0.976 1.381333c-5.066667 7.168-14.896 18.842667-26.112 20.634667-4.890667-3.685333-13.824-14.08-19.813333-23.296l-0.842667-1.28-1.002666-1.178667C774.885333 455.322667 695.552 384 512 384S249.114667 455.322667 223.541333 485.989333l-1.002666 1.178667-0.842667 1.28c-5.866667 9.034667-14.922667 19.584-19.84 23.296-11.210667-1.792-21.045333-13.466667-26.112-20.634667l-0.997333-1.381333-0.976-1.098667c-0.176-0.181333-19.632-22.298667-20.170667-55.274666C160.256 407.882667 248.805333 281.6 512 281.6m0-25.6c-295.882667 0-384 152.853333-384 176 0 44.954667 26.88 73.909333 26.88 73.909333 14.72 20.837333 32.074667 31.690667 49.92 31.690667 15.589333 0 38.4-35.2 38.4-35.2 14.666667-17.589333 84.586667-92.8 268.8-92.8s254.133333 75.210667 268.8 92.8c0 0 22.810667 35.2 38.4 35.2 17.845333 0 35.2-10.853333 49.92-31.690667 0 0 26.88-28.981333 26.88-73.909333 0-23.146667-88.117333-176-384-176z" fill="#AB3434" p-id="10043"></path></svg>